<?xml version="1.0" encoding="UTF-8" standalone="no"?><!DOCTYPE svg PUBLIC "-//W3C//DTD SVG 1.1//EN" "http://www.w3.org/Graphics/SVG/1.1/DTD/svg11.dtd"><svg width="100%" height="100%" viewBox="0 0 184 73" version="1.1" xmlns="http://www.w3.org/2000/svg" xmlns:xlink="http://www.w3.org/1999/xlink" xml:space="preserve" xmlns:serif="http://www.serif.com/" style="fill-rule:evenodd;clip-rule:evenodd;stroke-linejoin:round;stroke-miterlimit:1.41421;"><path d="M178.238,25.117c0,1.815 -0.443,3.398 -1.343,4.703c-0.015,0.038 -0.038,0.075 -0.068,0.105c-0.202,0.3 -0.442,0.6 -0.772,0.93c-0.225,0.24 -0.442,0.435 -0.645,0.592c-0.023,0.023 -0.06,0.038 -0.083,0.061c-1.335,1.079 -2.865,1.582 -4.71,1.582c-1.98,0 -3.622,-0.607 -5.017,-1.86l-0.023,-0.022c-0.12,-0.113 -0.24,-0.233 -0.367,-0.36c-0.39,-0.405 -0.713,-0.818 -0.998,-1.275c-0.022,-0.045 -0.06,-0.09 -0.075,-0.135c-0.735,-1.23 -1.117,-2.685 -1.117,-4.313c0,-1.8 0.42,-3.307 1.297,-4.62c0.023,-0.03 0.045,-0.075 0.075,-0.105c0.225,-0.337 0.495,-0.675 0.81,-0.997c0.195,-0.203 0.398,-0.39 0.608,-0.563c0.015,-0.015 0.037,-0.03 0.06,-0.037c1.32,-1.103 2.91,-1.65 4.747,-1.65c1.71,0 3.203,0.465 4.448,1.372c0.022,0.015 0.06,0.038 0.082,0.06c0.323,0.233 0.63,0.51 0.915,0.803c0.248,0.262 0.42,0.465 0.57,0.667c0.023,0.03 0.038,0.06 0.068,0.09c1.027,1.342 1.537,3.023 1.537,4.972Z" style="fill:#006eb6;fill-rule:nonzero;"/><path d="M176.835,20.025l-4.853,4.852l-1.657,1.666l-4.822,4.814l-0.023,-0.022c-0.127,-0.113 -0.248,-0.24 -0.375,-0.368c-0.398,-0.412 -0.727,-0.832 -1.02,-1.297c-0.023,-0.053 -0.06,-0.09 -0.075,-0.143l4.65,-4.65l1.665,-1.657l4.845,-4.845c0.022,0.015 0.06,0.045 0.083,0.06c0.329,0.24 0.644,0.525 0.937,0.817c0.255,0.263 0.427,0.473 0.577,0.683c0.023,0.03 0.046,0.052 0.068,0.09Z" style="fill:#fff;fill-rule:nonzero;"/><path d="M177.03,29.925c-0.015,0.045 -0.045,0.075 -0.068,0.105c-0.209,0.307 -0.457,0.615 -0.787,0.952c-0.233,0.248 -0.458,0.45 -0.66,0.608c-0.023,0.022 -0.06,0.045 -0.083,0.06l-5.107,-5.107l-6.135,-6.136c0.022,-0.03 0.052,-0.075 0.075,-0.105c0.232,-0.345 0.502,-0.69 0.825,-1.02c0.195,-0.21 0.405,-0.397 0.623,-0.57c0.014,-0.015 0.044,-0.03 0.06,-0.045l11.257,11.258Z" style="fill:#fff;fill-rule:nonzero;"/><path d="M0,36.9l0,-3.675l4.05,0l0,-29.52l-4.05,0l0,-3.705l12.81,0c4.155,0 7.29,0.772 9.42,2.325c2.123,1.552 3.188,3.832 3.188,6.855c0,1.92 -0.585,3.577 -1.748,4.98c-1.17,1.402 -2.767,2.355 -4.8,2.85c2.82,0.967 4.86,2.197 6.128,3.69c1.267,1.492 1.897,3.405 1.897,5.737c0,3.285 -1.065,5.85 -3.187,7.695c-2.123,1.845 -5.093,2.768 -8.895,2.768l-14.813,0Zm8.933,-33.195l0,12.03l3.675,0c2.617,0 4.597,-0.51 5.925,-1.523c1.335,-1.02 2.002,-2.52 2.002,-4.5c0,-1.987 -0.66,-3.48 -1.987,-4.492c-1.328,-1.005 -3.308,-1.515 -5.94,-1.515l-3.675,0Zm0,15.36l0,14.16l3.277,0c3.405,0 5.873,-0.57 7.418,-1.703c1.545,-1.132 2.317,-2.925 2.317,-5.377c0,-2.333 -0.825,-4.095 -2.467,-5.288c-1.643,-1.192 -4.065,-1.785 -7.268,-1.785l-3.277,0l0,-0.007Z" style="fill-rule:nonzero;"/><path d="M39.3,17.115c0.87,-1.5 1.92,-2.603 3.165,-3.3c1.245,-0.698 2.782,-1.05 4.612,-1.05c0.098,0 0.27,0.007 0.503,0.022c0.232,0.015 0.405,0.023 0.525,0.023l0,3.952l-1.222,0c-2.386,0 -4.245,0.63 -5.58,1.89c-1.335,1.26 -2.003,3.023 -2.003,5.288l0,9.427l3.63,0l0,3.525l-11.61,0l0,-3.525l3.63,0l0,-16.612l-3.63,0l0,-3.99l7.98,0l0,4.35Z" style="fill-rule:nonzero;"/><path d="M57.735,33.375l4.102,0l0,3.525l-12.51,0l0,-3.525l4.05,0l0,-16.613l-4.05,0l0,-3.99l8.408,0l0,20.603Zm-6.3,-25.77l0,-4.725l6.3,0l0,4.725l-6.3,0Z" style="fill-rule:nonzero;"/><path d="M119.67,33.375l3.578,0l-0.001,3.525l-8.002,0l0,-3.128c-0.952,1.215 -2.123,2.138 -3.525,2.768c-1.402,0.622 -2.985,0.937 -4.755,0.937c-3.42,0 -6.285,-1.177 -8.595,-3.54c-2.31,-2.362 -3.465,-5.28 -3.465,-8.767c0,-3.488 1.155,-6.413 3.48,-8.79c2.317,-2.378 5.175,-3.563 8.58,-3.563c1.717,0 3.262,0.308 4.642,0.923c1.373,0.615 2.588,1.545 3.638,2.775l0,-3.075l8.002,0l0,3.525l-3.577,0l0,16.41Zm-20.138,-8.205c0.001,2.505 0.766,4.568 2.303,6.202c1.538,1.636 3.443,2.453 5.73,2.453c2.287,0 4.192,-0.817 5.715,-2.453c1.522,-1.634 2.287,-3.704 2.287,-6.202c0,-2.497 -0.765,-4.56 -2.287,-6.18c-1.523,-1.62 -3.435,-2.43 -5.715,-2.43c-2.355,0 -4.275,0.803 -5.775,2.415c-1.507,1.612 -2.257,3.675 -2.257,6.195Z" style="fill-rule:nonzero;"/><path d="M146.813,3.607l-3.931,0l0,-3.6l8.356,0l0,33.368l3.577,0l0,3.525l-8.002,0l0,-2.828c-1.133,1.2 -2.325,2.07 -3.578,2.603c-1.252,0.532 -2.715,0.802 -4.402,0.802c-3.57,0 -6.518,-1.17 -8.858,-3.517c-2.333,-2.34 -3.502,-5.273 -3.502,-8.79c0,-3.488 1.147,-6.413 3.45,-8.79c2.302,-2.378 5.167,-3.563 8.602,-3.563c1.688,0 3.195,0.278 4.537,0.84c1.343,0.563 2.588,1.433 3.743,2.618l0,-12.668l0.007,0Zm-15.712,21.563c0,2.505 0.765,4.568 2.302,6.202c1.538,1.636 3.443,2.453 5.73,2.453c2.288,0 4.193,-0.817 5.715,-2.453c1.523,-1.634 2.288,-3.704 2.288,-6.202c0,-2.497 -0.765,-4.56 -2.288,-6.18c-1.522,-1.62 -3.435,-2.43 -5.715,-2.43c-2.355,0 -4.275,0.803 -5.775,2.415c-1.507,1.612 -2.257,3.675 -2.257,6.195Z" style="fill-rule:nonzero;"/><path d="M157.77,25.117c0,-3.502 1.222,-6.427 3.675,-8.782c2.452,-2.355 5.512,-3.525 9.18,-3.525c3.682,0 6.75,1.177 9.195,3.525c2.445,2.355 3.667,5.28 3.667,8.782c0,3.503 -1.222,6.435 -3.667,8.805c-2.445,2.371 -5.505,3.556 -9.195,3.556c-3.667,0 -6.728,-1.185 -9.18,-3.555c-2.453,-2.371 -3.675,-5.303 -3.675,-8.806Zm4.575,0c0,2.483 0.795,4.546 2.377,6.188c1.583,1.642 3.555,2.468 5.903,2.468c2.385,-0.001 4.365,-0.811 5.94,-2.438c1.575,-1.628 2.362,-3.698 2.362,-6.218c0,-2.52 -0.787,-4.59 -2.362,-6.217c-1.575,-1.628 -3.555,-2.438 -5.94,-2.438c-2.355,0 -4.32,0.825 -5.903,2.468c-1.59,1.642 -2.377,3.705 -2.377,6.187Z" style="fill-rule:nonzero;"/><path d="M90.248,13.057c0.337,-0.045 1.215,0.915 1.635,1.313c0.412,0.397 0.479,1.027 0.479,1.665c0,0.682 -0.27,1.418 -0.697,2.28c-0.428,0.87 -1.215,1.38 -1.815,1.897c-0.383,0.331 -0.578,0.601 -0.578,0.803c0,0.052 0.015,0.247 0.053,0.6c0.052,0.352 0.075,0.667 0.075,0.952c0,1.988 -0.668,3.653 -2.003,5.003c-1.2,1.2 -2.745,2.137 -4.642,2.805c-1.89,0.667 -3.975,0.997 -6.24,0.997c-0.548,0 -1.095,-0.03 -1.628,-0.097c-0.435,-0.052 -0.765,-0.075 -0.997,-0.075c-0.885,0 -1.328,0.442 -1.328,1.328c0,0.57 0.285,1.012 0.863,1.335c0.577,0.322 1.358,0.487 2.34,0.487c0.667,0 1.65,-0.09 2.955,-0.278c2.737,-0.382 4.755,-0.577 6.052,-0.577c1.965,0 3.495,0.322 4.575,0.975c0.87,0.502 1.553,1.2 2.063,2.1c0.51,0.9 0.765,1.868 0.765,2.903c0,1.687 -0.615,3.314 -1.853,4.904c-1.47,1.868 -3.63,3.256 -6.48,4.156c-2.234,0.697 -4.822,1.05 -7.754,1.05c-3.706,0 -6.706,-0.57 -9.008,-1.703c-1.065,-0.532 -1.92,-1.238 -2.55,-2.1c-0.638,-0.87 -0.953,-1.77 -0.953,-2.7c0,-0.653 0.18,-1.252 0.54,-1.8c0.36,-0.547 0.81,-0.945 1.365,-1.177c0.503,-0.203 0.75,-0.42 0.75,-0.653c0,-0.18 -0.21,-0.45 -0.622,-0.802c-1.335,-1.118 -2.003,-2.28 -2.003,-3.48c0,-0.803 0.323,-1.628 0.96,-2.475c0.645,-0.848 1.441,-1.508 2.393,-1.973c0.397,-0.203 0.6,-0.398 0.6,-0.6c0,-0.233 -0.248,-0.585 -0.75,-1.05c-1.718,-1.583 -2.58,-3.435 -2.58,-5.55c0,-1.117 0.307,-2.183 0.915,-3.203c0.607,-1.02 1.455,-1.882 2.542,-2.602c2.685,-1.748 5.663,-2.625 8.933,-2.625c1.297,0 2.752,0.165 4.35,0.502c1.515,0.3 2.557,0.45 3.127,0.45c1.815,0 3.255,-1.027 5.055,-2.467c0.405,-0.3 0.503,-0.428 1.095,-0.518Zm-18.832,28.32c-0.42,0 -0.623,0.24 -0.623,0.728c0,0.982 0.533,1.778 1.598,2.392c1.065,0.608 2.452,0.915 4.155,0.915c1.635,0 2.917,-0.217 3.84,-0.652c0.922,-0.435 1.387,-1.043 1.387,-1.823c0,-0.42 -0.172,-0.772 -0.525,-1.065c-0.352,-0.292 -0.787,-0.435 -1.297,-0.435c-0.27,0 -0.653,0.03 -1.148,0.098c-0.937,0.15 -1.972,0.225 -3.127,0.225c-0.848,0 -1.665,-0.045 -2.453,-0.127c-0.585,-0.053 -1.057,-0.12 -1.425,-0.203c-0.172,-0.038 -0.292,-0.053 -0.382,-0.053Zm5.46,-22.762c-0.833,0 -1.508,0.315 -2.01,0.952c-0.51,0.638 -0.765,1.478 -0.765,2.528c0,1.8 0.277,3.247 0.825,4.327c0.547,1.088 1.275,1.628 2.175,1.628c0.885,0 1.582,-0.338 2.1,-1.013c0.517,-0.675 0.772,-1.582 0.772,-2.715c0,-1.785 -0.27,-3.172 -0.81,-4.162c-0.547,-0.998 -1.305,-1.515 -2.287,-1.545Z" style="fill:#006eb6;fill-rule:nonzero;"/><path d="M101.22,4.012c0.15,0.12 0.368,0.105 0.502,-0.037l0.038,-0.038c0.135,-0.15 0.127,-0.382 -0.022,-0.525l-1.103,-1.005c-0.15,-0.135 -0.382,-0.127 -0.525,0.023l-0.037,0.037c-0.135,0.143 -0.128,0.368 0.007,0.503c-0.623,0.772 -3.24,4.027 -4.26,5.145c-0.967,1.057 -3.698,3.742 -4.582,4.605c-0.151,-0.128 -0.376,-0.113 -0.511,0.03l-0.037,0.037c-0.135,0.15 -0.128,0.383 0.022,0.525l1.103,1.005c0.15,0.135 0.382,0.128 0.525,-0.022l0.037,-0.037c0.135,-0.151 0.128,-0.375 -0.015,-0.511c0.78,-0.967 3.18,-3.945 4.148,-5.002c1.013,-1.118 3.998,-4.043 4.71,-4.733Z" style="fill:#006eb6;fill-rule:nonzero;"/><path d="M101.895,63.562l-0.045,-0.067c-0.172,-0.248 -0.502,-0.315 -0.757,-0.158c-0.51,-0.607 -2.168,-2.062 -3.465,-3.832l0.315,-0.218l0.202,-0.142c0.255,-0.18 0.323,-0.533 0.143,-0.788l-0.045,-0.067c-0.18,-0.255 -0.533,-0.323 -0.788,-0.143l-0.248,0.173l-1.379,0.96l-0.248,0.172c-0.255,0.18 -0.323,0.533 -0.142,0.788l0.044,0.067c0.181,0.255 0.533,0.323 0.788,0.143l0.203,-0.143l0.315,-0.217c1.192,1.837 1.972,3.892 2.37,4.59c-0.233,0.187 -0.285,0.517 -0.113,0.765l0.045,0.067c0.18,0.255 0.532,0.323 0.788,0.143l1.882,-1.305c0.248,-0.18 0.315,-0.532 0.135,-0.787Z" style="fill:#006eb6;fill-rule:nonzero;"/><path d="M97.238,57.87c-1.111,-1.403 -3.585,-4.463 -4.05,-5.138c-1.246,-1.792 -2.813,-4.642 -3.601,-5.992c0.248,-0.18 0.3,-0.525 0.128,-0.773l-0.045,-0.067c-0.18,-0.255 -0.533,-0.323 -0.788,-0.143l-1.882,1.305c-0.255,0.18 -0.323,0.533 -0.143,0.788l0.045,0.068c0.173,0.255 0.518,0.314 0.773,0.149c0.982,1.215 3.105,3.69 4.342,5.483c0.465,0.675 2.46,4.065 3.383,5.602l1.838,-1.282Z" style="fill:#006eb6;fill-rule:nonzero;"/><path d="M88.515,70.117l-0.015,-0.082c-0.06,-0.293 -0.338,-0.488 -0.638,-0.443c-0.232,-0.765 -1.192,-2.745 -1.702,-4.875l0.375,-0.082l0.24,-0.053c0.307,-0.067 0.502,-0.367 0.435,-0.667l-0.015,-0.083c-0.068,-0.307 -0.368,-0.502 -0.667,-0.435l-0.3,0.06l-1.643,0.345l-0.3,0.06c-0.308,0.068 -0.502,0.368 -0.435,0.668l0.015,0.082c0.067,0.308 0.367,0.503 0.667,0.435l0.24,-0.052l0.375,-0.083c0.39,2.16 0.308,4.358 0.398,5.153c-0.285,0.082 -0.465,0.367 -0.405,0.66l0.015,0.082c0.068,0.308 0.368,0.503 0.667,0.436l2.243,-0.473c0.323,-0.045 0.518,-0.345 0.45,-0.653Z" style="fill:#006eb6;fill-rule:nonzero;"/><path d="M86.43,63.06c-0.48,-1.725 -1.575,-5.505 -1.74,-6.308c-0.45,-2.137 -0.788,-5.369 -0.99,-6.922c0.292,-0.075 0.48,-0.368 0.42,-0.667l-0.015,-0.083c-0.068,-0.307 -0.368,-0.502 -0.668,-0.435l-2.242,0.472c-0.307,0.068 -0.502,0.368 -0.435,0.668l0.015,0.082c0.06,0.3 0.353,0.495 0.653,0.443c0.434,1.507 1.425,4.605 1.874,6.735c0.165,0.802 0.691,4.702 0.938,6.472l2.19,-0.457Z" style="fill:#006eb6;fill-rule:nonzero;"/><path d="M62.272,69.548l0.03,-0.075c0.105,-0.285 -0.03,-0.593 -0.3,-0.713c0.21,-0.773 0.45,-2.955 1.148,-5.032l0.36,0.134l0.233,0.083c0.292,0.105 0.622,-0.045 0.727,-0.337l0.03,-0.075c0.105,-0.293 -0.045,-0.623 -0.338,-0.728l-0.285,-0.105l-1.575,-0.585l-0.284,-0.105c-0.293,-0.105 -0.623,0.045 -0.728,0.338l-0.03,0.075c-0.105,0.292 0.045,0.622 0.338,0.727l0.232,0.083l0.36,0.135c-0.817,2.032 -2.055,3.855 -2.4,4.575c-0.285,-0.083 -0.585,0.06 -0.69,0.345l-0.03,0.075c-0.105,0.292 0.045,0.622 0.338,0.727l2.145,0.795c0.284,0.105 0.614,-0.045 0.719,-0.338Z" style="fill:#006eb6;fill-rule:nonzero;"/><path d="M64.26,62.46c0.51,-1.718 1.59,-5.498 1.875,-6.27c0.757,-2.047 2.19,-4.965 2.843,-6.39c0.284,0.097 0.599,-0.053 0.712,-0.338l0.03,-0.074c0.105,-0.293 -0.045,-0.623 -0.338,-0.728l-2.145,-0.795c-0.292,-0.105 -0.622,0.045 -0.727,0.338l-0.03,0.074c-0.105,0.285 0.037,0.608 0.315,0.72c-0.428,1.508 -1.238,4.658 -1.995,6.706c-0.285,0.772 -1.912,4.349 -2.64,5.984l2.1,0.773Z" style="fill:#006eb6;fill-rule:nonzero;"/><path d="M75.908,71.587l-0.001,-0.082c0.008,-0.3 -0.224,-0.548 -0.517,-0.578c-0.06,-0.795 -0.54,-2.94 -0.563,-5.13l0.383,0.008l0.248,0.007c0.315,0.008 0.57,-0.24 0.577,-0.555l0,-0.082c0.008,-0.315 -0.24,-0.57 -0.555,-0.578l-0.307,-0.007l-1.68,-0.038l-0.308,-0.007c-0.315,-0.008 -0.57,0.24 -0.577,0.555l0,0.082c-0.008,0.315 0.24,0.57 0.555,0.578l0.247,0.007l0.383,0.008c-0.105,2.19 -0.683,4.312 -0.773,5.107c-0.292,0.015 -0.532,0.255 -0.54,0.555l0,0.083c-0.007,0.315 0.24,0.57 0.555,0.577l2.288,0.045c0.322,0.008 0.577,-0.24 0.585,-0.555Z" style="fill:#006eb6;fill-rule:nonzero;"/><path d="M75.473,64.245c-0.083,-1.785 -0.293,-5.715 -0.27,-6.533c0.044,-2.182 0.45,-5.407 0.599,-6.967c0.308,-0.008 0.555,-0.248 0.563,-0.555l0,-0.083c0.007,-0.315 -0.24,-0.57 -0.555,-0.577l-2.287,-0.045c-0.315,-0.008 -0.57,0.24 -0.578,0.555l0,0.082c-0.007,0.308 0.233,0.563 0.533,0.578c0.082,1.56 0.352,4.807 0.307,6.982c-0.015,0.818 -0.39,4.74 -0.547,6.518l2.234,0.045Z" style="fill:#006eb6;fill-rule:nonzero;"/></svg>